<svg xmlns="http://www.w3.org/2000/svg" xmlns:xlink="http://www.w3.org/1999/xlink" width="60" height="60" viewBox="0 0 60 60">
  <defs>
    <linearGradient id="linear-gradient" x1="0.896" y1="0.977" x2="0.085" y2="0.053" gradientUnits="objectBoundingBox">
      <stop offset="0" stop-color="#008f9d"/>
      <stop offset="1" stop-color="#61fa8d"/>
    </linearGradient>
  </defs>
  <g id="Group_221" data-name="Group 221" transform="translate(-1)">
    <rect id="Rectangle" width="60" height="60" rx="13" transform="translate(1)" fill="url(#linear-gradient)"/>
    <g id="logo">
      <g id="orange" transform="translate(13.268 12.753)">
        <path id="Path_51" data-name="Path 51" d="M66.084,59.844l-8.4-3.482a1.008,1.008,0,0,0-1.317,1.317l3.482,8.4a1,1,0,0,0,1.432.491,15.037,15.037,0,0,0,5.3-5.3A1.006,1.006,0,0,0,66.084,59.844Z" transform="translate(-35.717 -36.42)" fill="#fff"/>
        <path id="Path_46" data-name="Path 46" d="M45.029,60.484a1.008,1.008,0,0,0-1.863,0l-3.482,8.4a1.007,1.007,0,0,0,.668,1.361,15.039,15.039,0,0,0,7.492,0,1,1,0,0,0,.665-1.359Z" transform="translate(-26.247 -38.452)" fill="#fff"/>
        <path id="Path_48" data-name="Path 48" d="M28.612,56.362l-8.4,3.482a1,1,0,0,0-.491,1.432,15.037,15.037,0,0,0,5.3,5.3,1.007,1.007,0,0,0,1.435-.49l3.482-8.4A1.008,1.008,0,0,0,28.612,56.362Z" transform="translate(-14.872 -36.42)" fill="#fff"/>
        <path id="Path_49" data-name="Path 49" d="M25.239,43.166l-8.4-3.482a1.006,1.006,0,0,0-1.361.668,15.039,15.039,0,0,0,0,7.492,1,1,0,0,0,1.359.665l8.4-3.482A1.008,1.008,0,0,0,25.239,43.166Z" transform="translate(-12.271 -26.948)" fill="#fff"/>
        <path id="Path_50" data-name="Path 50" d="M20.208,26.447l8.4,3.482a1.008,1.008,0,0,0,1.317-1.317l-3.481-8.4a1,1,0,0,0-1.432-.491,15.037,15.037,0,0,0-5.3,5.3A1.006,1.006,0,0,0,20.208,26.447Z" transform="translate(-14.873 -15.574)" fill="#fff"/>
        <path id="Subtraction_6" data-name="Subtraction 6" d="M-6972.809-4782.9a19.39,19.39,0,0,1-7.59-1.532,19.453,19.453,0,0,1-6.2-4.179,19.423,19.423,0,0,1-4.18-6.2,19.388,19.388,0,0,1-1.532-7.589,19.394,19.394,0,0,1,1.532-7.59,19.421,19.421,0,0,1,4.18-6.2,19.421,19.421,0,0,1,6.2-4.18c.387-.164.784-.317,1.179-.454l.285.959c-.356.125-.718.265-1.076.416a18.446,18.446,0,0,0-5.878,3.966,18.407,18.407,0,0,0-3.966,5.88,18.355,18.355,0,0,0-1.453,7.2,18.373,18.373,0,0,0,1.453,7.2,18.45,18.45,0,0,0,3.966,5.88,18.442,18.442,0,0,0,5.878,3.964,18.382,18.382,0,0,0,7.2,1.453,18.38,18.38,0,0,0,7.2-1.453,18.444,18.444,0,0,0,5.879-3.964,18.444,18.444,0,0,0,3.966-5.88c.09-.211.179-.435.266-.664l.948.318c-.09.242-.189.488-.292.734a19.467,19.467,0,0,1-4.178,6.2,19.468,19.468,0,0,1-6.2,4.179A19.375,19.375,0,0,1-6972.809-4782.9Z" transform="translate(6991.041 4819.146)" fill="#fff"/>
      </g>
      <circle id="s" cx="1.521" cy="1.521" r="1.521" transform="matrix(0.629, 0.777, -0.777, 0.629, 50.172, 28.594)" fill="#fff"/>
      <circle id="m" cx="2.027" cy="2.027" r="2.027" transform="translate(48.112 20.684) rotate(28)" fill="#fff"/>
      <circle id="s-2" data-name="s" cx="1.521" cy="1.521" r="1.521" transform="translate(28.61 11.047) rotate(-45)" fill="#fff"/>
      <circle id="m-2" data-name="m" cx="2.027" cy="2.027" r="2.027" transform="translate(35.078 11.045) rotate(-23)" fill="#fff"/>
      <circle id="l" cx="2.534" cy="2.534" r="2.534" transform="translate(42.065 13.768) rotate(2)" fill="#fff"/>
    </g>
  </g>
</svg>
