<svg id="Layer_1" data-name="Layer 1" xmlns="http://www.w3.org/2000/svg" viewBox="0 0 142.72 30"><defs><style>.cls-1{fill:#fc4c02;}</style></defs><title>strava_logo_orange</title><path class="cls-1" d="M51.28,41.28a6.68,6.68,0,0,1,.82,3.43v.07a8.26,8.26,0,0,1-.84,3.77,8.08,8.08,0,0,1-2.36,2.84,11.09,11.09,0,0,1-3.7,1.79,17.42,17.42,0,0,1-4.87.63,25.16,25.16,0,0,1-7.6-1.12,16.87,16.87,0,0,1-6.07-3.37l4.76-5.67A14.13,14.13,0,0,0,36,46a16.15,16.15,0,0,0,4.76.73,3.64,3.64,0,0,0,1.75-.31.91.91,0,0,0,.53-.83v-.08c0-.38-.26-.7-.78-.95a13.24,13.24,0,0,0-2.91-.8c-1.5-.31-2.93-.67-4.29-1.07a15.05,15.05,0,0,1-3.58-1.56A7.6,7.6,0,0,1,29,38.77a6.52,6.52,0,0,1-.92-3.54v-.08a8.39,8.39,0,0,1,.75-3.54A7.92,7.92,0,0,1,31,28.75a10.32,10.32,0,0,1,3.54-1.91,16,16,0,0,1,4.86-.68,22.72,22.72,0,0,1,6.79.92,16.17,16.17,0,0,1,5.24,2.73l-4.34,6a13.5,13.5,0,0,0-4-2,13.93,13.93,0,0,0-4-.63,2.66,2.66,0,0,0-1.46.31.89.89,0,0,0-.48.8v.07c0,.36.24.67.72.92a12.6,12.6,0,0,0,2.82.8,38.89,38.89,0,0,1,4.65,1.1A14.11,14.11,0,0,1,49,38.86,7.31,7.31,0,0,1,51.28,41.28Zm.32-7.09h7.85V53.31h8.91V34.19h7.85V26.66H51.6ZM155,25,140.68,53.31h8.54L155,41.85l5.81,11.46h8.54Zm-39.94,0,14.35,28.32h-8.54l-5.81-11.46-5.8,11.46h-16l-5-7.61h-1.9v7.61H77.47V26.66h13a17.75,17.75,0,0,1,5.88.82,9.79,9.79,0,0,1,3.71,2.22,8,8,0,0,1,1.83,2.74,9.59,9.59,0,0,1,.61,3.58v.08a8.4,8.4,0,0,1-1.41,4.95,9.66,9.66,0,0,1-3.85,3.2L101.91,51ZM93.66,36.67a2.18,2.18,0,0,0-.92-1.92,4.3,4.3,0,0,0-2.47-.63H86.38v5.22h3.85a4.09,4.09,0,0,0,2.51-.69,2.24,2.24,0,0,0,.92-1.9Zm47.21-10-5.81,11.46-5.81-11.46H120.7L135.06,55,149.4,26.66Z" transform="translate(-26.66 -24.99)"/></svg>