<?xml version="1.0" encoding="utf-8"?>
<!-- Generator: Adobe Illustrator 24.0.0, SVG Export Plug-In . SVG Version: 6.00 Build 0)  -->
<svg version="1.1" id="Layer_1" xmlns="http://www.w3.org/2000/svg" xmlns:xlink="http://www.w3.org/1999/xlink" x="0px" y="0px"
	 viewBox="0 0 142.7 30" style="enable-background:new 0 0 142.7 30;" xml:space="preserve">
<style type="text/css">
	.st0{fill:#FFFFFF;}
</style>
<title>strava_logo_orange</title>
<path class="st0" d="M24.6,16.3c0.6,1,0.9,2.2,0.8,3.4v0.1c0,1.3-0.3,2.6-0.8,3.8c-0.6,1.1-1.4,2.1-2.4,2.8
	c-1.1,0.8-2.4,1.4-3.7,1.8c-1.6,0.4-3.2,0.7-4.9,0.6c-2.6,0-5.1-0.4-7.6-1.1C3.8,27,1.8,25.9,0,24.3l4.8-5.7
	c1.4,1.1,2.9,1.9,4.6,2.3c1.5,0.5,3.1,0.7,4.8,0.7c0.6,0,1.2-0.1,1.8-0.3c0.3-0.1,0.5-0.5,0.5-0.8v-0.1c0-0.4-0.3-0.7-0.8-1
	c-0.9-0.4-1.9-0.6-2.9-0.8c-1.5-0.3-2.9-0.7-4.3-1.1c-1.3-0.4-2.5-0.9-3.6-1.6c-1-0.6-1.8-1.4-2.5-2.4c-0.6-1.1-1-2.3-0.9-3.5v-0.1
	c0-1.2,0.2-2.4,0.8-3.5c0.5-1.1,1.2-2.1,2.2-2.9c1-0.9,2.2-1.5,3.5-1.9c1.6-0.5,3.2-0.7,4.9-0.7c2.3,0,4.6,0.3,6.8,0.9
	c1.9,0.6,3.7,1.5,5.2,2.7l-4.3,6c-1.2-0.9-2.6-1.6-4-2c-1.3-0.4-2.6-0.6-4-0.6c-0.5,0-1,0.1-1.5,0.3c-0.3,0.2-0.5,0.5-0.5,0.8v0.1
	c0,0.4,0.2,0.7,0.7,0.9c0.9,0.4,1.9,0.6,2.8,0.8c1.6,0.3,3.1,0.6,4.7,1.1c1.3,0.4,2.5,0.9,3.7,1.7C23.3,14.5,24.1,15.3,24.6,16.3z
	 M24.9,9.2h7.8v19.1h8.9V9.2h7.8V1.7H24.9V9.2z M128.3,0L114,28.3h8.5l5.8-11.5l5.8,11.5h8.5L128.3,0z M88.4,0l14.4,28.3h-8.5
	l-5.8-11.5l-5.8,11.5h-16l-5-7.6h-1.9v7.6h-8.9V1.7h13c2-0.1,4,0.2,5.9,0.8c1.4,0.5,2.7,1.2,3.7,2.2c0.8,0.8,1.4,1.7,1.8,2.7
	c0.4,1.1,0.6,2.4,0.6,3.6v0.1c0.1,1.8-0.4,3.5-1.4,5c-1,1.4-2.3,2.5-3.8,3.2l4.7,6.8L88.4,0z M67,11.7c0-0.8-0.3-1.5-0.9-1.9
	c-0.7-0.5-1.6-0.7-2.5-0.6h-3.9v5.2h3.8c0.9,0,1.8-0.2,2.5-0.7C66.7,13.2,67,12.5,67,11.7L67,11.7z M114.2,1.7l-5.8,11.5l-5.8-11.5
	H94L108.4,30l14.3-28.3L114.2,1.7z"/>
</svg>
