<svg width="512" height="512" viewBox="0 0 512 512" fill="none" xmlns="http://www.w3.org/2000/svg">
<path d="M242.667 141.098H282.667C291.911 141.098 298.133 143.384 301.333 147.958C304.533 152.204 306.133 157.594 306.133 164.127V180.787C306.133 187.32 304.533 192.873 301.333 197.446C298.133 201.693 291.911 203.816 282.667 203.816H242.667V141.098ZM223.467 405.691C230.222 405.691 235.022 404.385 237.867 401.771C241.067 398.832 242.667 394.258 242.667 388.052V292.014H317.333C324.8 292.014 329.956 293.811 332.8 297.404C336 300.671 337.6 305.897 337.6 313.084V388.052C337.6 394.258 339.022 398.832 341.867 401.771C345.067 404.385 350.044 405.691 356.8 405.691H432.036C438.791 405.691 443.591 404.385 446.436 401.771C449.636 398.832 451.236 394.258 451.236 388.052V284.174C451.236 263.595 445.191 247.099 433.102 234.686C421.369 222.272 405.902 215.086 386.702 213.126C397.725 208.879 405.369 202.02 409.636 192.547C414.258 182.747 416.569 170.987 416.569 157.267V134.728C416.569 110.555 408.925 90.9556 393.636 75.9293C378.702 60.5764 351.325 52.8999 311.502 52.8999H141.333C134.578 52.8999 129.6 54.3698 126.4 57.3098C123.556 59.923 122.133 64.3329 122.133 70.5395V388.052C122.133 394.258 123.556 398.832 126.4 401.771C129.6 404.385 134.578 405.691 141.333 405.691H223.467ZM240.533 406.181L171.2 459.1C169.778 460.407 167.467 461.55 164.267 462.53C161.422 463.51 158.222 464 154.667 464H72.5333C64 464 57.7778 462.203 53.8667 458.61C49.9555 455.017 48 449.3 48 441.461V123.948C48 119.702 48.5333 116.108 49.6 113.168C51.0222 110.229 52.9778 107.779 55.4667 105.819L124.267 52.4099C126.044 51.1033 128.356 50.1233 131.2 49.4699C134.4 48.49 137.778 48 141.333 48H318.933C361.244 48 390.222 56.1665 405.867 72.4994C421.511 88.5057 429.333 109.249 429.333 134.728V157.267C429.333 169.354 427.733 179.97 424.533 189.117C421.333 197.936 416.178 205.123 409.067 210.676H408.533C425.244 214.923 438.578 223.416 448.533 236.155C458.844 248.895 464 264.901 464 284.174V388.052C464 392.298 463.289 395.892 461.867 398.832C460.8 401.772 459.022 404.221 456.533 406.181L387.2 459.1C385.778 460.407 383.467 461.55 380.267 462.53C377.422 463.51 374.222 464 370.667 464H288C279.467 464 273.244 462.203 269.333 458.61C265.422 455.017 263.467 449.3 263.467 441.461V366.492C263.467 361.266 262.4 357.346 260.267 354.733C258.133 351.793 254.222 350.323 248.533 350.323H248V388.052C248 392.298 247.289 395.892 245.867 398.832C244.8 401.772 243.022 404.221 240.533 406.181Z" fill="black"/>
</svg>
