<?xml version="1.0" encoding="utf-8"?>
<!-- Generator: Adobe Illustrator 23.1.1, SVG Export Plug-In . SVG Version: 6.00 Build 0)  -->
<svg version="1.1" id="Layer_1" xmlns="http://www.w3.org/2000/svg" xmlns:xlink="http://www.w3.org/1999/xlink" x="0px" y="0px"
	 viewBox="0 0 120 86" style="enable-background:new 0 0 120 86;" xml:space="preserve">
<style type="text/css">
	.st0{fill:#FFFFFF;}
	.st1{opacity:0;fill:none;stroke:#000000;stroke-width:0.5;stroke-miterlimit:10;}
</style>
<path class="st0" d="M96.6,43c0,9.3-3.5,18.3-9.8,25.7c1.3,2.9,3.2,5.1,5.7,6.8c1.3,0.9,2,2.4,1.6,4c-0.3,1.5-1.6,2.7-3.1,2.9
	c-4,0.6-11.9,0.8-19.1-3.5c-1.2-0.7-1.6-2.2-0.9-3.4c0.7-1.2,2.2-1.6,3.4-0.9c4.4,2.7,9.2,3.2,12.7,3.1c-2.5-2.3-4.4-5.1-5.6-8.6
	c-0.3-0.9-0.1-1.9,0.5-2.6c6.2-6.7,9.5-14.9,9.5-23.5c0-20.8-19.4-37.6-43.3-37.6S5,22.2,5,43s19.4,37.6,43.3,37.6
	c4,0,8-0.5,11.8-1.4c1.3-0.3,2.7,0.5,3,1.8s-0.5,2.7-1.8,3c-4.2,1-8.6,1.6-13,1.6C21.7,85.6,0,66.5,0,43S21.7,0.4,48.3,0.4
	S96.6,19.5,96.6,43z M45.2,43c0,1.7,1.4,3.1,3.1,3.1c1.7,0,3.1-1.4,3.1-3.1c0-1.7-1.4-3.1-3.1-3.1C46.6,39.9,45.2,41.3,45.2,43z
	 M61.6,39.9c-1.7,0-3.1,1.4-3.1,3.1c0,1.7,1.4,3.1,3.1,3.1c1.7,0,3.1-1.4,3.1-3.1S63.3,39.9,61.6,39.9z M31.9,43
	c0,1.7,1.4,3.1,3.1,3.1s3.1-1.4,3.1-3.1c0-1.7-1.4-3.1-3.1-3.1S31.9,41.3,31.9,43z"/>
<rect class="st1" width="120" height="86"/>
</svg>
