<?xml version="1.0" encoding="utf-8"?>
<!-- Generator: Adobe Illustrator 23.1.1, SVG Export Plug-In . SVG Version: 6.00 Build 0)  -->
<svg version="1.1" id="Layer_1" xmlns="http://www.w3.org/2000/svg" xmlns:xlink="http://www.w3.org/1999/xlink" x="0px" y="0px"
	 viewBox="0 0 120 86" style="enable-background:new 0 0 120 86;" xml:space="preserve">
<style type="text/css">
	.st0{fill:#FFFFFF;}
	.st1{opacity:0;fill:none;stroke:#FFFFFF;stroke-miterlimit:10;}
</style>
<title>Artboard 14</title>
<g>
	<path class="st0" d="M62.6,50.9c-0.4,1.1-1,2.1-1.3,2.9c0.2,0.4,0.5,0.9,0.8,1.2c0.2,0.4,0.5,0.7,0.9,0.9c1.4-0.4,2.7-1.3,3.6-2.4
		c2.7-3.2,3.3-7.7,1.6-11.5c-0.6-1.4-1.6-2.5-2.8-3.3c-0.4,0.2-0.9,0.5-1.2,0.8c-0.3,0.2-0.7,0.5-0.9,0.8c0.1,0.9,0.3,2,0.4,3.2
		C64,46,63.6,48.6,62.6,50.9L62.6,50.9z"/>
	<path class="st0" d="M71.9,56.3c-1,1.8-2.2,3.5-3.4,5.2c0.1,0.5,0.4,0.9,0.8,1.3c0.4,0.6,0.8,0.9,0.9,0.9c2.3-1.1,4.2-2.7,5.7-4.7
		c4.3-5.6,5.3-13.1,2.7-19.5c-0.9-2.3-2.4-4.4-4.3-6c-0.1-0.1-0.7,0.2-1.3,0.7c-0.6,0.5-0.9,0.8-0.9,0.9c0.7,1.9,1.4,3.9,1.9,5.9
		C75.3,46,74.5,51.6,71.9,56.3L71.9,56.3z"/>
	<path class="st0" d="M46.8,61.5c-0.5,0.6-1.3,1-2.1,1.2h-0.2h-0.2l-0.5,0.1L42.9,63c-0.6,0.1-1.2,0.2-1.8,0.2
		c-4.6,0.5-9.2,0.4-13.7-0.3h-0.2c-0.1,0-0.2,0-0.4,0s-0.4,0-0.5,0.1c-1.8-1.2-3.7-2.4-5.7-3.4c-2.6-1.4-4.8-3-6.4-3.7
		c-0.5,0.2-0.9,0.4-1.3,0.7c-0.4,0.2-0.7,0.5-1,0.8c0.3,1.4,0.9,2.6,1.8,3.7c1.2,1.3,2.5,2.5,4.1,3.3c2.1,1.2,4.5,2,6.9,2.1
		c0.2,6.4,0.5,11.8,0.8,15.9c0,0.4,0.7,0.8,1.5,0.8s1.2-0.3,1.3-0.8c0.3-3.8,0.5-8.8,0.7-14.7c4.1,0.7,8.3,0.9,12.5,0.6
		c0.7-0.1,1.3-0.1,2-0.2l1-0.2l0.5-0.1h0.3l0.3-0.1c1.9-0.4,3.5-1.3,4.8-2.7c1.3-1.4,2.2-3.1,2.5-5c0.2-1,0.2-1.9,0-2.9
		c-0.1-0.5-0.2-0.9-0.3-1.4l0,0l0,0c0-0.1,0-0.2,0-0.2c0-0.5,0-1.1,0.1-1.6c0-0.3,0.1-0.5,0.2-0.8l0.3-1l0.1-0.2v-0.2l0.1-0.3
		c0.1-0.4,0.1-0.9,0-1.3c-0.3-1.8-1.6-3.3-3.4-3.7l-1-0.2c-2.1-0.3-4-1.5-5.2-3.2c-0.1-0.2-0.2-0.3-0.3-0.5c0.5,0,1,0,1.5,0
		c1.5-0.1,3-0.2,4.4-0.5c0.7-0.1,1.5-0.3,2.2-0.4c0.7-0.1,1.4-0.3,2.2-0.6l0,0c1.1-0.4,1.8-1.5,1.8-2.6L55.3,32
		c1.3-0.5,2.6-1.3,3.7-2.2c0.4-0.4,0.8-0.7,1.2-1.2c0.2-0.2,0.4-0.5,0.6-0.8s0.4-0.6,0.5-0.9c0.9-1.9,0.7-4.1-0.4-5.9
		c-0.4-0.6-0.8-1.1-1.4-1.5c-0.4-0.3-0.9-0.6-1.3-0.8c-0.4-0.2-0.7-0.4-1-0.5c-1.2-0.6-2.3-1.4-3.2-2.4c-1.7-1.7-3-3.7-3.7-6
		c-0.3-1-0.5-2-0.7-3.1l-0.5-3.2c-0.1-0.4-0.8-0.7-1.5-0.5c-0.7,0.2-1.2,0.5-1.2,0.9l0.1,3c0,1.3,0.1,2.6,0.4,3.8c0.6,3,2,5.7,4.1,8
		c1.1,1.3,2.5,2.4,3.9,3.3c0.4,0.2,0.8,0.5,1.1,0.7c0.3,0.1,0.5,0.3,0.7,0.5c0.1,0.1,0.2,0.2,0.3,0.3c0.1,0.1,0.1,0.3,0.2,0.5
		c0.1,0.3,0,0.6-0.2,0.9c0,0.1-0.1,0.1-0.1,0.2c-0.1,0.1-0.1,0.2-0.2,0.2c-0.2,0.2-0.5,0.4-0.7,0.6c-1.2,0.9-2.6,1.5-4,1.8
		c-1.1,0.3-1.9,1.3-1.9,2.5v0.1l0.3,6c-0.5,0.1-1.1,0.2-1.7,0.3c-1.2,0.2-2.5,0.3-3.8,0.3c-0.6,0-1.3,0-1.9,0h-0.5
		c-0.2,0-0.4,0-0.6,0.1c-0.4,0.1-0.8,0.2-1.1,0.3c-0.7,0.3-1.4,0.8-1.9,1.4c-0.5,0.6-0.9,1.4-1,2.2c-0.1,0.8-0.1,1.6,0.1,2.4
		c0.3,0.9,0.7,1.7,1.2,2.5c1,1.6,2.3,2.9,3.9,3.8c1.5,0.9,3.1,1.5,4.7,1.8h0.1l-0.1,0.4c-0.1,0.5-0.2,0.9-0.2,1.3
		c-0.1,0.8-0.2,1.7-0.2,2.6c0,0.6,0.1,1.2,0.3,1.8c0.1,0.2,0.1,0.4,0.2,0.6c0.1,0.4,0.1,0.8,0,1.2C47.8,60.1,47.4,60.9,46.8,61.5z
		 M48.1,50.7L48.1,50.7z"/>
</g>
<rect y="0.1" class="st1" width="120" height="86"/>
</svg>
