<svg width="1080" height="1080" viewBox="0 0 1080 1080" fill="none" xmlns="http://www.w3.org/2000/svg">
<g clip-path="url(#clip0_602_515)">
<path d="M653 226.264C653 163.71 602.408 113 540 113C477.592 113 427 163.71 427 226.264C427 288.818 477.592 339.528 540 339.528C602.408 339.528 653 288.818 653 226.264Z" fill="#337DEC"/>
<path fill-rule="evenodd" clip-rule="evenodd" d="M460.097 485.266C415.968 529.624 415.968 601.542 460.097 645.897L517.804 703.904C520.912 707.028 520.908 712.077 517.796 715.197L460.097 773.029C415.968 817.264 415.968 888.979 460.097 933.209C504.226 977.444 575.774 977.444 619.903 933.209C664.032 888.979 664.032 817.264 619.903 773.029L562.204 715.197C559.092 712.077 559.088 707.028 562.196 703.904L619.903 645.897C664.032 601.542 664.032 529.624 619.903 485.266C575.774 440.909 504.226 440.909 460.097 485.266Z" fill="url(#paint0_linear_602_515)"/>
</g>
<defs>
<linearGradient id="paint0_linear_602_515" x1="539.668" y1="452.478" x2="539.367" y2="966.999" gradientUnits="userSpaceOnUse">
<stop offset="0.307292" stop-color="#E41A86"/>
<stop offset="0.5" stop-color="#F1C232"/>
<stop offset="0.703125" stop-color="#0097A7"/>
</linearGradient>
<clipPath id="clip0_602_515">
<rect width="226" height="854" fill="white" transform="translate(427 113)"/>
</clipPath>
</defs>
</svg>
