<svg width="68" height="48" viewBox="0 0 68 48" fill="none" xmlns="http://www.w3.org/2000/svg">
<g clip-path="url(#clip0_42_26533)">
<path d="M46.5 0H21C9.40202 0 0 9.40202 0 21V27C0 38.598 9.40202 48 21 48H46.5C58.098 48 67.5 38.598 67.5 27V21C67.5 9.40202 58.098 0 46.5 0Z" fill="#448C74" fill-opacity="0.1"/>
<path d="M22.1728 17.371H24.2631C24.7462 17.371 25.0714 17.5029 25.2387 17.7667C25.4058 18.0118 25.4895 18.3228 25.4895 18.6996V19.6608C25.4895 20.0377 25.4058 20.358 25.2387 20.6219C25.0714 20.867 24.7462 20.9893 24.2631 20.9893H22.1728V17.371ZM21.1695 32.6361C21.5224 32.6361 21.7734 32.5606 21.922 32.4099C22.0893 32.2402 22.1728 31.9764 22.1728 31.6183V26.0778H26.0748C26.4649 26.0778 26.7344 26.1815 26.883 26.3888C27.0503 26.5772 27.1338 26.8786 27.1338 27.2932V31.6183C27.1338 31.9764 27.2082 32.2402 27.3568 32.4099C27.5241 32.5606 27.7842 32.6361 28.1371 32.6361H32.4571C32.8102 32.6361 33.061 32.5606 33.2097 32.4099C33.3769 32.2402 33.4605 31.9764 33.4605 31.6183V25.6254C33.4605 24.4381 33.1446 23.4864 32.5129 22.7703C31.8997 22.0542 31.0915 21.6396 30.0882 21.5265C30.6642 21.2815 31.0636 20.8857 31.2865 20.3392C31.5282 19.7739 31.6489 19.0954 31.6489 18.3039V17.0036C31.6489 15.609 31.2495 14.4782 30.4504 13.6113C29.6701 12.7256 28.2394 12.2827 26.1583 12.2827H16.8774C16.5243 12.2827 16.2642 12.3675 16.097 12.5371C15.9483 12.6879 15.874 12.9423 15.874 13.3004V31.6183C15.874 31.9764 15.9483 32.2402 16.097 32.4099C16.2642 32.5606 16.5243 32.6361 16.8774 32.6361H21.1695ZM22.0614 32.6643L18.4381 35.7173C18.3639 35.7927 18.243 35.8587 18.0759 35.9153C17.9272 35.9718 17.76 36 17.5741 36H13.2821C12.8361 36 12.511 35.8963 12.3066 35.689C12.1022 35.4818 12 35.1519 12 34.6996V16.3816C12 16.1367 12.0279 15.9294 12.0836 15.7598C12.1579 15.5901 12.2601 15.4488 12.3902 15.3357L15.9855 12.2544C16.0785 12.179 16.1992 12.1225 16.3479 12.0848C16.515 12.0283 16.6916 12 16.8774 12H26.1583C28.3695 12 29.8837 12.4712 30.7013 13.4134C31.5189 14.3369 31.9277 15.5336 31.9277 17.0036V18.3039C31.9277 19.0012 31.844 19.6137 31.6768 20.1414C31.5096 20.6502 31.2402 21.0648 30.8685 21.3852H30.8406C31.7139 21.6301 32.4106 22.1202 32.931 22.8551C33.4698 23.59 33.7392 24.5136 33.7392 25.6254V31.6183C33.7392 31.8633 33.702 32.0706 33.6278 32.2402C33.5719 32.4099 33.4791 32.5512 33.349 32.6643L29.7258 35.7173C29.6515 35.7927 29.5308 35.8587 29.3636 35.9153C29.2149 35.9718 29.0476 36 28.8618 36H24.5418C24.096 36 23.7708 35.8963 23.5663 35.689C23.362 35.4818 23.2597 35.1519 23.2597 34.6996V30.3745C23.2597 30.0731 23.2041 29.8468 23.0926 29.6961C22.981 29.5264 22.7767 29.4417 22.4795 29.4417H22.4515V31.6183C22.4515 31.8633 22.4143 32.0706 22.3401 32.2402C22.2843 32.4099 22.1914 32.5512 22.0614 32.6643Z" fill="#448C74"/>
<path d="M35.5164 36C35.0705 36 34.7453 35.8963 34.5408 35.689C34.3365 35.4818 34.2344 35.1519 34.2344 34.6996V16.3816C34.2344 16.1367 34.2621 15.9294 34.3179 15.7598C34.3922 15.5901 34.4945 15.4488 34.6245 15.3357L38.2199 12.2544C38.3127 12.179 38.4335 12.1225 38.5821 12.0848C38.7494 12.0283 38.9259 12 39.1116 12H48.0024C49.9349 12 51.3563 12.3863 52.2668 13.159C53.1771 13.9128 53.6324 15.0624 53.6324 16.6077V17.9646C53.6324 18.6243 53.5395 19.1896 53.3537 19.6608C53.1864 20.1319 52.9263 20.5089 52.5732 20.7915L52.4897 20.848C53.493 21.0742 54.2456 21.5642 54.7472 22.3181C55.2489 23.0531 55.4997 24.0801 55.4997 25.3993V28C55.4997 28.848 55.379 29.583 55.1375 30.2049C54.8958 30.8081 54.5336 31.3169 54.0504 31.7315L50.4551 34.8127C49.9905 35.2085 49.4054 35.5007 48.6993 35.689C47.9931 35.8963 47.1663 36 46.2188 36H35.5164ZM49.8141 32.6361C51.6536 32.6361 53.0099 32.2591 53.8832 31.5052C54.7751 30.7515 55.221 29.583 55.221 28V25.3993C55.221 24.0235 54.933 22.9776 54.357 22.2615C53.781 21.5454 52.8984 21.1308 51.7092 21.0177C52.2668 20.7726 52.6755 20.4053 52.9356 19.9152C53.2143 19.4064 53.3537 18.7562 53.3537 17.9646V16.6077C53.3537 15.1379 52.917 14.0542 52.0437 13.3569C51.1704 12.6408 49.8234 12.2827 48.0024 12.2827H39.1116C38.7587 12.2827 38.4986 12.3675 38.3313 12.5371C38.1827 12.6879 38.1083 12.9423 38.1083 13.3004V31.6183C38.1083 31.9764 38.1827 32.2402 38.3313 32.4099C38.4986 32.5606 38.7587 32.6361 39.1116 32.6361H49.8141ZM44.3793 17.0883H46.7483C47.1014 17.0883 47.3615 17.1825 47.5287 17.371C47.7144 17.5594 47.8074 17.8422 47.8074 18.2192V19.0106C47.8074 19.3875 47.7144 19.6703 47.5287 19.8587C47.3615 20.0471 47.1014 20.1414 46.7483 20.1414H44.3793V17.0883ZM44.3793 24.4947H48.0024C48.3555 24.4947 48.6156 24.5889 48.7829 24.7774C48.9687 24.9469 49.0616 25.2203 49.0616 25.5972V26.6997C49.0616 27.0765 48.9687 27.3593 48.7829 27.5477C48.6156 27.7362 48.3555 27.8304 48.0024 27.8304H44.3793V24.4947Z" fill="#448C74"/>
</g>
<defs>
<clipPath id="clip0_42_26533">
<rect width="67.5" height="48" fill="white"/>
</clipPath>
</defs>
</svg>
