<svg width="158" height="113" viewBox="0 0 158 113" fill="none" xmlns="http://www.w3.org/2000/svg">
<g clip-path="url(#clip0_139_16488)">
<path d="M51.7367 40.7058H56.6139C57.7412 40.7058 58.5 41.0134 58.8903 41.6291C59.2802 42.201 59.4755 42.9265 59.4755 43.8057V46.0485C59.4755 46.9281 59.2802 47.6753 58.8903 48.291C58.5 48.8629 57.7412 49.1485 56.6139 49.1485H51.7367V40.7058ZM49.3955 76.3242C50.219 76.3242 50.8046 76.1482 51.1515 75.7964C51.5417 75.4006 51.7367 74.7849 51.7367 73.9495V61.0215H60.8412C61.7515 61.0215 62.3802 61.2634 62.727 61.7471C63.1173 62.1867 63.3122 62.8902 63.3122 63.8576V73.9495C63.3122 74.7849 63.4858 75.4006 63.8326 75.7964C64.2229 76.1482 64.8298 76.3242 65.6534 76.3242H75.7333C76.5572 76.3242 77.1424 76.1482 77.4893 75.7964C77.8795 75.4006 78.0745 74.7849 78.0745 73.9495V59.9659C78.0745 57.1957 77.3374 54.9749 75.8636 53.304C74.4328 51.6331 72.5469 50.6657 70.2058 50.4018C71.5498 49.8303 72.4819 48.9066 73.002 47.6316C73.5658 46.3124 73.8476 44.7294 73.8476 42.8824V39.8483C73.8476 36.5943 72.9155 33.9558 71.0511 31.933C69.2304 29.8663 65.8921 28.833 61.0361 28.833H39.3806C38.5567 28.833 37.9498 29.0308 37.5596 29.4266C37.2127 29.7784 37.0394 30.372 37.0394 31.2075V73.9495C37.0394 74.7849 37.2127 75.4006 37.5596 75.7964C37.9498 76.1482 38.5567 76.3242 39.3806 76.3242H49.3955ZM51.4766 76.39L43.0223 83.5136C42.8491 83.6896 42.567 83.8436 42.1771 83.9756C41.8303 84.1075 41.44 84.1733 41.0063 84.1733H30.9915C29.951 84.1733 29.1922 83.9315 28.7154 83.4478C28.2385 82.9641 28 82.1944 28 81.1392V38.3972C28 37.8256 28.065 37.3419 28.1951 36.9461C28.3685 36.5502 28.607 36.2205 28.9105 35.9566L37.2995 28.767C37.5165 28.5911 37.7982 28.4591 38.1451 28.3712C38.535 28.2393 38.947 28.1733 39.3806 28.1733H61.0361C66.1955 28.1733 69.7288 29.2727 71.6363 31.4714C73.5441 33.626 74.4979 36.4183 74.4979 39.8483V42.8824C74.4979 44.5096 74.3026 45.9386 73.9127 47.1699C73.5224 48.3571 72.8938 49.3245 72.0265 50.0721H71.9614C73.9991 50.6437 75.6249 51.7871 76.839 53.5018C78.0962 55.2168 78.7248 57.3717 78.7248 59.9659V73.9495C78.7248 74.521 78.638 75.0047 78.4648 75.4006C78.3346 75.7964 78.1179 76.1261 77.8145 76.39L69.3602 83.5136C69.1869 83.6896 68.9052 83.8436 68.515 83.9756C68.1681 84.1075 67.7778 84.1733 67.3442 84.1733H57.2642C56.224 84.1733 55.4652 83.9315 54.9882 83.4478C54.5115 82.9641 54.2728 82.1944 54.2728 81.1392V71.0473C54.2728 70.3438 54.1429 69.816 53.8828 69.4642C53.6224 69.0684 53.1458 68.8706 52.4521 68.8706H52.387V73.9495C52.387 74.521 52.3002 75.0047 52.1269 75.4006C51.9967 75.7964 51.78 76.1261 51.4766 76.39Z" fill="white"/>
<path d="M82.8723 84.1733C81.8318 84.1733 81.073 83.9315 80.5959 83.4478C80.1192 82.9641 79.8809 82.1944 79.8809 81.1392V38.3972C79.8809 37.8256 79.9456 37.3419 80.0758 36.9461C80.2491 36.5502 80.4878 36.2205 80.7912 35.9566L89.1804 28.767C89.397 28.5911 89.6788 28.4591 90.0256 28.3712C90.4159 28.2393 90.8278 28.1733 91.2611 28.1733H112.006C116.515 28.1733 119.832 29.0748 121.956 30.8777C124.081 32.6366 125.143 35.3189 125.143 38.9246V42.0907C125.143 43.63 124.926 44.9492 124.493 46.0485C124.102 47.1479 123.495 48.0274 122.672 48.6868L122.477 48.8188C124.818 49.3466 126.574 50.4897 127.744 52.2488C128.915 53.9638 129.5 56.3602 129.5 59.4385V65.5068C129.5 67.4853 129.218 69.2003 128.655 70.6514C128.091 72.0588 127.246 73.246 126.118 74.2134L117.729 81.4031C116.645 82.3264 115.28 83.0082 113.632 83.4478C111.985 83.9315 110.055 84.1733 107.844 84.1733H82.8723ZM116.234 76.3242C120.526 76.3242 123.69 75.4447 125.728 73.6856C127.809 71.9268 128.85 69.2003 128.85 65.5068V59.4385C128.85 56.2283 128.178 53.7877 126.834 52.1168C125.49 50.4459 123.43 49.4785 120.656 49.2146C121.956 48.6427 122.91 47.7856 123.517 46.6421C124.167 45.4549 124.493 43.9377 124.493 42.0907V38.9246C124.493 35.495 123.474 32.9664 121.436 31.3394C119.398 29.6684 116.255 28.833 112.006 28.833H91.2611C90.4376 28.833 89.8307 29.0308 89.4404 29.4266C89.0936 29.7784 88.92 30.372 88.92 31.2075V73.9495C88.92 74.7849 89.0936 75.4006 89.4404 75.7964C89.8307 76.1482 90.4376 76.3242 91.2611 76.3242H116.234ZM103.552 40.046H109.08C109.904 40.046 110.511 40.2658 110.901 40.7058C111.334 41.1454 111.551 41.8051 111.551 42.6847V44.5313C111.551 45.4108 111.334 46.0706 110.901 46.5102C110.511 46.9498 109.904 47.1699 109.08 47.1699H103.552V40.046ZM103.552 57.3276H112.006C112.83 57.3276 113.437 57.5474 113.827 57.9874C114.261 58.3829 114.478 59.0206 114.478 59.9001V62.4726C114.478 63.3518 114.261 64.0116 113.827 64.4512C113.437 64.8911 112.83 65.1109 112.006 65.1109H103.552V57.3276Z" fill="white"/>
</g>
<defs>
<clipPath id="clip0_139_16488">
<rect width="157.5" height="112" fill="white" transform="translate(0 0.17334)"/>
</clipPath>
</defs>
</svg>
